<svg width="1200" height="630" viewBox="0 0 1200 630" fill="none" xmlns="http://www.w3.org/2000/svg">
  <!-- Background with gradient -->
  <defs>
    <linearGradient id="bgGradient" x1="0%" y1="0%" x2="100%" y2="100%">
      <stop offset="0%" style="stop-color:#0a0a0a;stop-opacity:1" />
      <stop offset="50%" style="stop-color:#1a0033;stop-opacity:1" />
      <stop offset="100%" style="stop-color:#001a4d;stop-opacity:1" />
    </linearGradient>

    <linearGradient id="pixelGradient" x1="0%" y1="0%" x2="100%" y2="100%">
      <stop offset="0%" style="stop-color:#8b5cf6;stop-opacity:1" />
      <stop offset="100%" style="stop-color:#3b82f6;stop-opacity:1" />
    </linearGradient>

    <linearGradient id="accentGradient" x1="0%" y1="0%" x2="100%" y2="100%">
      <stop offset="0%" style="stop-color:#a78bfa;stop-opacity:1" />
      <stop offset="100%" style="stop-color:#60a5fa;stop-opacity:1" />
    </linearGradient>
  </defs>

  <!-- Background -->
  <rect width="1200" height="630" fill="url(#bgGradient)"/>

  <!-- Animated pixel grid background -->
  <g opacity="0.1">
    <rect x="0" y="0" width="40" height="40" fill="url(#pixelGradient)"/>
    <rect x="40" y="40" width="40" height="40" fill="url(#pixelGradient)"/>
    <rect x="80" y="0" width="40" height="40" fill="url(#pixelGradient)"/>
    <rect x="120" y="40" width="40" height="40" fill="url(#pixelGradient)"/>
    <rect x="160" y="0" width="40" height="40" fill="url(#pixelGradient)"/>

    <rect x="1000" y="100" width="40" height="40" fill="url(#pixelGradient)"/>
    <rect x="1040" y="140" width="40" height="40" fill="url(#pixelGradient)"/>
    <rect x="1080" y="100" width="40" height="40" fill="url(#pixelGradient)"/>
    <rect x="1120" y="180" width="40" height="40" fill="url(#pixelGradient)"/>

    <rect x="50" y="550" width="40" height="40" fill="url(#pixelGradient)"/>
    <rect x="100" y="590" width="40" height="40" fill="url(#pixelGradient)"/>
  </g>

  <!-- Left side: Large icon -->
  <g>
    <!-- Frame border -->
    <rect x="80" y="115" width="280" height="280" rx="30" fill="none" stroke="url(#pixelGradient)" stroke-width="4"/>

    <!-- Pixel grid pattern -->
    <g opacity="0.3">
      <rect x="120" y="155" width="32" height="32" fill="url(#accentGradient)"/>
      <rect x="200" y="155" width="32" height="32" fill="url(#accentGradient)"/>
      <rect x="280" y="155" width="32" height="32" fill="url(#accentGradient)"/>

      <rect x="120" y="235" width="32" height="32" fill="url(#accentGradient)"/>
      <rect x="280" y="235" width="32" height="32" fill="url(#accentGradient)"/>

      <rect x="120" y="315" width="32" height="32" fill="url(#accentGradient)"/>
      <rect x="200" y="315" width="32" height="32" fill="url(#accentGradient)"/>
      <rect x="280" y="315" width="32" height="32" fill="url(#accentGradient)"/>
    </g>

    <!-- Play button -->
    <circle cx="220" cy="255" r="70" fill="url(#pixelGradient)" opacity="0.95"/>
    <polygon points="200,225 200,285 250,255" fill="#0a0a0a"/>
    <circle cx="220" cy="255" r="70" fill="none" stroke="url(#pixelGradient)" stroke-width="2" opacity="0.4"/>
  </g>

  <!-- Right side: Text content -->
  <g>
    <!-- Main title -->
    <text x="420" y="200" font-family="Arial, sans-serif" font-size="72" font-weight="bold" fill="white">
      <tspan>Pixology.ai</tspan>
    </text>

    <!-- Subtitle -->
    <text x="420" y="270" font-family="Arial, sans-serif" font-size="32" fill="url(#pixelGradient)" font-weight="600">
      <tspan>AI-Powered Video Generation</tspan>
    </text>

    <!-- Description -->
    <text x="420" y="330" font-family="Arial, sans-serif" font-size="24" fill="#a0a0a0">
      <tspan>Transform Sports Marketing with</tspan>
    </text>
    <text x="420" y="365" font-family="Arial, sans-serif" font-size="24" fill="#a0a0a0">
      <tspan>AI-Generated Digital Athlete Content</tspan>
    </text>

    <!-- Call to action -->
    <rect x="420" y="420" width="320" height="70" rx="15" fill="url(#pixelGradient)" opacity="0.9"/>
    <text x="580" y="470" font-family="Arial, sans-serif" font-size="24" font-weight="bold" fill="#0a0a0a" text-anchor="middle">
      <tspan>Create & Innovate</tspan>
    </text>
  </g>

  <!-- Decorative accents -->
  <line x1="420" y1="390" x2="700" y2="390" stroke="url(#pixelGradient)" stroke-width="2" opacity="0.5"/>

  <!-- Corner accent pixels -->
  <rect x="1100" y="550" width="20" height="20" fill="url(#pixelGradient)"/>
  <rect x="1140" y="580" width="20" height="20" fill="url(#pixelGradient)"/>
</svg>
